<svg width="50" height="50" viewBox="0 0 50 50" fill="none" xmlns="http://www.w3.org/2000/svg">
<g clip-path="url(#clip0_741_2515)">
<path d="M33.7349 8.06104C33.5428 8.06249 33.3542 8.11279 33.1868 8.20723C33.0195 8.30167 32.879 8.43714 32.7785 8.60088C29.2411 14.3652 24.8315 15.5142 20.1718 16.7313C15.2834 18.0081 10.2184 19.3366 6.20233 25.8706C6.08923 26.0518 6.02968 26.2612 6.03056 26.4748C6.03143 26.6884 6.0927 26.8973 6.20729 27.0776L15.3007 41.4079C15.4036 41.5701 15.5461 41.7035 15.7148 41.7954C15.8834 41.8874 16.0727 41.9349 16.2648 41.9336C16.4568 41.9322 16.6454 41.882 16.8127 41.7877C16.9801 41.6933 17.1206 41.558 17.2212 41.3943C20.7586 35.63 25.1683 34.481 29.8339 33.2601C32.5992 32.5361 35.4166 31.7992 38.0645 30.119C40.1066 28.8231 42.0518 26.9653 43.7986 24.1238C43.9095 23.9434 43.9676 23.7354 43.9662 23.5235C43.9648 23.3117 43.904 23.1045 43.7907 22.9255L34.6972 8.5951C34.5955 8.43157 34.4537 8.29671 34.2853 8.20325C34.1169 8.1098 33.9275 8.06086 33.7349 8.06104ZM41.4977 23.5274C38.0241 28.7769 33.7625 29.8923 29.2623 31.0703C26.497 31.7942 23.6796 32.5312 21.0317 34.2114C19.1771 35.4009 17.5673 36.9344 16.2893 38.7292L8.50984 26.4696C11.9834 21.22 16.2451 20.1046 20.7453 18.9267C25.2455 17.7488 29.8806 16.5405 33.7198 11.2702L41.4977 23.5274ZM22.575 21.1763C21.8188 21.6562 21.2218 22.3496 20.8596 23.1687C20.4975 23.9879 20.3863 24.8961 20.5403 25.7784C20.6942 26.6607 21.1063 27.4776 21.7245 28.1257C22.3427 28.7738 23.1392 29.224 24.0133 29.4194C24.8874 29.6148 25.7998 29.5467 26.6351 29.2235C27.4705 28.9004 28.1912 28.3368 28.7063 27.6041C29.2213 26.8713 29.5075 26.0023 29.5286 25.1069C29.5498 24.2115 29.3049 23.3299 28.825 22.5737C28.1815 21.5596 27.1615 20.8426 25.9894 20.5806C24.8173 20.3185 23.5891 20.5328 22.575 21.1763ZM26.2146 26.9118C25.8364 27.1518 25.3956 27.2742 24.9479 27.2636C24.5002 27.2531 24.0657 27.11 23.6993 26.8524C23.333 26.5949 23.0512 26.2345 22.8896 25.8169C22.728 25.3992 22.694 24.943 22.7917 24.506C22.8894 24.0689 23.1145 23.6707 23.4385 23.3616C23.7626 23.0525 24.171 22.8464 24.6122 22.7694C25.0534 22.6925 25.5074 22.748 25.917 22.9291C26.3266 23.1102 26.6733 23.4087 26.9132 23.7868C27.235 24.2939 27.3421 24.908 27.2111 25.494C27.0801 26.0801 26.7216 26.5901 26.2146 26.9118ZM13.9718 26.6356L17.6113 32.3711C17.7722 32.6246 17.8258 32.9317 17.7602 33.2247C17.6947 33.5177 17.5155 33.7727 17.262 33.9336C17.0085 34.0945 16.7014 34.148 16.4084 34.0825C16.1154 34.017 15.8604 33.8378 15.6995 33.5843L12.06 27.8488C11.8991 27.5952 11.8455 27.2882 11.911 26.9952C11.9765 26.7021 12.1558 26.4471 12.4093 26.2863C12.6628 26.1254 12.9699 26.0718 13.2629 26.1373C13.5559 26.2028 13.8109 26.3821 13.9718 26.6356ZM36.031 23.3644L32.3915 17.6289C32.2306 17.3754 32.177 17.0683 32.2425 16.7753C32.308 16.4823 32.4873 16.2273 32.7408 16.0664C32.9943 15.9055 33.3014 15.852 33.5944 15.9175C33.8874 15.983 34.1424 16.1622 34.3033 16.4157L37.9428 22.1512C38.1037 22.4048 38.1572 22.7118 38.0917 23.0048C38.0262 23.2979 37.847 23.5529 37.5935 23.7137C37.3399 23.8746 37.0329 23.9282 36.7399 23.8627C36.4468 23.7972 36.1918 23.6179 36.031 23.3644Z" fill="#4CAF50"/>
</g>
<defs>
<clipPath id="clip0_741_2515">
<rect width="36.2282" height="36.2282" fill="white" transform="translate(0 19.4107) rotate(-32.3975)"/>
</clipPath>
</defs>
</svg>
